<svg xmlns="http://www.w3.org/2000/svg" viewBox="0 0 385.21 167.33">
  <path d="M79.93 136.06c0 9.49-3.43 17.07-10.3 22.75-6.87 5.68-15.66 8.52-26.39 8.52-7.24 0-14.76-1.31-22.56-3.93-7.8-2.62-14.7-6.3-20.69-11.04l10.11-16.29c11.61 8.74 22.84 13.1 33.7 13.1 4.74 0 8.49-1.09 11.23-3.28 2.74-2.18 4.12-4.96 4.12-8.33 0-4.99-6.62-9.48-19.84-13.48-1-.38-1.75-.62-2.25-.75-20.72-5.62-31.08-14.98-31.08-28.08 0-9.23 3.59-16.63 10.76-22.18 7.17-5.55 16.5-8.33 27.99-8.33s22.34 3.37 32.57 10.11l-7.86 15.54c-8.11-5.36-16.91-8.05-26.39-8.05-4.99 0-9.05.91-12.17 2.71-3.12 1.81-4.68 4.52-4.68 8.14 0 3.25 1.62 5.62 4.87 7.11 2.25 1.12 5.4 2.19 9.45 3.18 4.05 1 7.64 2 10.76 3s6.15 2.12 9.08 3.37c2.93 1.25 6.08 3 9.45 5.24 6.74 4.49 10.11 11.48 10.11 20.97ZM129.54 58v8.24h26.21v16.85h-26.21v82.74h-20.97V83.09H96.03V66.24h12.54v-7.67c0-10.48 3.15-18.81 9.45-24.99 6.3-6.18 13.91-9.27 22.84-9.27s17.06 3.31 24.43 9.92l-8.61 14.79c-4.12-4.37-8.42-6.55-12.92-6.55s-7.99 1.4-10.48 4.21c-2.5 2.81-3.74 6.58-3.74 11.33ZM177.27 46.4c-2.62-2.62-3.93-5.74-3.93-9.36s1.31-6.74 3.93-9.36 5.74-3.93 9.36-3.93 6.74 1.31 9.36 3.93c2.62 2.62 3.93 5.74 3.93 9.36s-1.31 6.74-3.93 9.36c-2.62 2.62-5.74 3.93-9.36 3.93s-6.74-1.31-9.36-3.93Zm19.66 119.43h-20.97V66.24h20.97v99.59Z" style="fill:#016e9d"/>
  <path d="M293.21 85.93c-7.39-4.82-16.41-47.6-16.41-47.6s-5.15-24.44-29.59-19.29c-24.44 5.15-19.29 29.59-19.29 29.59 5.15 24.44 65.29 37.3 65.29 37.3" style="fill:#ff8300"/>
  <path d="M301.49 88.73c-6.87 5.55-50.34.9-50.34.9s-24.84-2.65-27.49 22.18c-2.66 24.84 22.18 27.49 22.18 27.49 24.84 2.65 55.65-50.58 55.65-50.58M306.72 81.72c3.15 8.25-14.7 48.15-14.7 48.15s-10.2 22.8 12.6 33c22.8 10.2 33-12.6 33-12.6 10.2-22.8-30.9-68.56-30.9-68.56M301.67 74.59c8.82-.45 41.25 28.86 41.25 28.86s18.54 16.75 35.28-1.78c16.74-18.54-1.79-35.28-1.79-35.28-18.53-16.75-74.75 8.2-74.75 8.2M293.32 77.18c2.3-8.52 40.2-30.31 40.2-30.31s21.65-12.45 9.2-34.11c-12.45-21.65-34.11-9.2-34.11-9.2-21.65 12.45-15.29 73.62-15.29 73.62" style="fill:#009ade"/>
</svg>
